<?xml version="1.0" encoding="UTF-8" standalone="no"?>
<!-- Created with Inkscape (http://www.inkscape.org/) -->

<svg
   xmlns:dc="http://purl.org/dc/elements/1.1/"
   xmlns:cc="http://creativecommons.org/ns#"
   xmlns:rdf="http://www.w3.org/1999/02/22-rdf-syntax-ns#"
   xmlns:svg="http://www.w3.org/2000/svg"
   xmlns="http://www.w3.org/2000/svg"
   xmlns:sodipodi="http://sodipodi.sourceforge.net/DTD/sodipodi-0.dtd"
   xmlns:inkscape="http://www.inkscape.org/namespaces/inkscape"
   width="210mm"
   height="297mm"
   id="svg2"
   version="1.1"
   inkscape:version="0.48.5 r10040"
   sodipodi:docname="Neues Dokument 1">
  <defs
     id="defs4" />
  <sodipodi:namedview
     id="base"
     pagecolor="#ffffff"
     bordercolor="#666666"
     borderopacity="1.0"
     inkscape:pageopacity="0.0"
     inkscape:pageshadow="2"
     inkscape:zoom="1.979899"
     inkscape:cx="231.47201"
     inkscape:cy="507.09309"
     inkscape:document-units="px"
     inkscape:current-layer="g3824"
     showgrid="false"
     inkscape:window-width="1179"
     inkscape:window-height="1023"
     inkscape:window-x="102"
     inkscape:window-y="0"
     inkscape:window-maximized="0" />
  <metadata
     id="metadata7">
    <rdf:RDF>
      <cc:Work
         rdf:about="">
        <dc:format>image/svg+xml</dc:format>
        <dc:type
           rdf:resource="http://purl.org/dc/dcmitype/StillImage" />
        <dc:title></dc:title>
      </cc:Work>
    </rdf:RDF>
  </metadata>
  <g
     inkscape:label="Ebene 1"
     inkscape:groupmode="layer"
     id="layer1">
    <g
       id="g3843">
      <g
         transform="translate(-4.4063169e-7,66.428573)"
         id="g3824">
        <g
           id="g3971">
          <g
             transform="translate(0.315825,149.50258)"
             id="g3937">
            <g
               id="g3921"
               transform="translate(0,-149.96277)">
              <g
                 id="g3913"
                 transform="translate(138.89598,180.81731)"
                 style="fill:#cccccc">
                <path
                   sodipodi:nodetypes="csssscc"
                   inkscape:connector-curvature="0"
                   id="path3915"
                   d="m 123.09174,478.16312 c 2.19265,1.34468 2.62255,0.55548 2.62255,3.12763 l 0,27.14285 c 0,2.57214 -2.07072,4.64286 -4.64286,4.64286 l -15.71429,0 c -2.57214,0 -5.22122,-2.13659 -4.64285,-4.64286 0.66415,-10.9256 12.55088,-35.08294 22.37745,-30.27048 z"
                   style="fill:#cccccc;fill-opacity:1;stroke:none"
                   transform="translate(4.4063169e-7,-66.428573)" />
                <rect
                   ry="0"
                   y="443.79077"
                   x="105.78607"
                   height="12.387961"
                   width="13.49964"
                   id="rect3917"
                   style="fill:#cccccc;fill-opacity:1;stroke:none" />
              </g>
              <rect
                 transform="translate(4.4063169e-7,-66.428573)"
                 y="672.03973"
                 x="259.60919"
                 height="7.5761442"
                 width="12.121831"
                 id="rect3919"
                 style="fill:#cccccc;fill-opacity:1;stroke:none" />
            </g>
            <g
               id="g3927"
               transform="matrix(-1,0,0,1,607.22549,-149.96277)">
              <g
                 style="fill:#cccccc"
                 transform="translate(138.89598,180.81731)"
                 id="g3929">
                <path
                   transform="translate(4.4063169e-7,-66.428573)"
                   style="fill:#cccccc;fill-opacity:1;stroke:none"
                   d="m 123.09174,478.16312 c 2.19265,1.34468 2.62255,0.55548 2.62255,3.12763 l 0,27.14285 c 0,2.57214 -2.07072,4.64286 -4.64286,4.64286 l -15.71429,0 c -2.57214,0 -5.22122,-2.13659 -4.64285,-4.64286 0.66415,-10.9256 12.55088,-35.08294 22.37745,-30.27048 z"
                   id="path3931"
                   inkscape:connector-curvature="0"
                   sodipodi:nodetypes="csssscc" />
                <rect
                   style="fill:#cccccc;fill-opacity:1;stroke:none"
                   id="rect3933"
                   width="13.49964"
                   height="12.387961"
                   x="105.78607"
                   y="443.79077"
                   ry="0" />
              </g>
              <rect
                 style="fill:#cccccc;fill-opacity:1;stroke:none"
                 id="rect3935"
                 width="12.121831"
                 height="7.5761442"
                 x="259.60919"
                 y="672.03973"
                 transform="translate(4.4063169e-7,-66.428573)" />
            </g>
          </g>
          <g
             id="g3949">
            <g
               id="g3900">
              <rect
                 ry="5.9684687"
                 y="448.79074"
                 x="268.92856"
                 height="189.28571"
                 width="70"
                 id="rect3864"
                 style="fill:#808080;fill-opacity:1;stroke:none" />
              <rect
                 ry="4.6428571"
                 y="440.93362"
                 x="299.28571"
                 height="15"
                 width="9.2857141"
                 id="rect3866"
                 style="fill:#808080;fill-opacity:1;stroke:none" />
            </g>
            <g
               id="g3882">
              <g
                 id="g3828"
                 transform="translate(1.4464215,-66.428573)">
                <g
                   transform="translate(-29.053571,0)"
                   id="g3807">
                  <g
                     id="g3793"
                     transform="translate(-0.71428572,15.714286)">
                    <path
                       sodipodi:nodetypes="cccccccccccccc"
                       inkscape:connector-curvature="0"
                       id="path3763"
                       d="m 332.25,341.63393 -46.826,9.96875 -10.31909,33.96875 11.45384,0 5.74465,-18.875 39.9466,-9.34375 z m 0,0 0,15.71875 39.9466,9.34375 5.74465,18.875 11.45384,0 -10.3191,-33.96875 z"
                       style="fill:#999999;stroke:none" />
                    <g
                       transform="translate(-74.535712,0)"
                       id="g3774"
                       style="fill:#808080">
                      <rect
                         ry="12.380651"
                         y="381.89508"
                         x="335"
                         height="68.291321"
                         width="32.85714"
                         id="rect3772"
                         style="fill:#808080;fill-opacity:1;stroke:none" />
                      <rect
                         style="fill:#808080;fill-opacity:1;stroke:none"
                         id="rect3770"
                         width="32.85714"
                         height="68.291321"
                         x="445.71429"
                         y="381.89508"
                         ry="12.380651" />
                    </g>
                  </g>
                  <g
                     id="g3778"
                     transform="translate(-76.071429,0)">
                    <rect
                       style="fill:#545454;fill-opacity:1;stroke:none"
                       id="rect3759"
                       width="72.857132"
                       height="67.14286"
                       x="371.89288"
                       y="370.21933"
                       ry="12.811283" />
                    <rect
                       ry="0"
                       y="425.21936"
                       x="371.89285"
                       height="32.857143"
                       width="72.85714"
                       id="rect3761"
                       style="fill:#00ffff;fill-opacity:1;stroke:none" />
                    <rect
                       ry="11.44838"
                       y="450.21933"
                       x="371.89285"
                       height="60.000004"
                       width="72.85714"
                       id="rect2987"
                       style="fill:#545454;fill-opacity:1;stroke:none" />
                  </g>
                </g>
                <g
                   transform="translate(-27.874999,67.142857)"
                   id="g3803">
                  <rect
                     ry="5"
                     y="392.82648"
                     x="270.71429"
                     height="46.42857"
                     width="10"
                     id="rect3801"
                     style="fill:#808080;fill-opacity:1;stroke:none" />
                  <rect
                     style="fill:#808080;fill-opacity:1;stroke:none"
                     id="rect3799"
                     width="10"
                     height="46.42857"
                     x="380"
                     y="392.82648"
                     ry="5" />
                </g>
              </g>
              <path
                 sodipodi:nodetypes="sssssssss"
                 inkscape:connector-curvature="0"
                 id="rect3820"
                 d="m 244.99999,423.06948 9.28571,0 c 2.77,0 10.71429,6.15857 10.71429,8.92857 l 0,43.57143 c 0,2.77 -2.23,5 -5,5 l -29.28571,0 c -2.77,0 -5,-2.23 -5,-5 l 0,-43.57143 c 0,-2.77 16.51571,-8.92857 19.28571,-8.92857 z"
                 style="fill:#808080;fill-opacity:1;stroke:none" />
              <path
                 sodipodi:nodetypes="sssssssss"
                 inkscape:connector-curvature="0"
                 id="rect3822"
                 d="m 355.00001,423.06948 8.57142,0 c 2.77,0 18.57143,6.15857 18.57143,8.92857 l 0,43.57143 c 0,2.77 -2.23,5 -5,5 l -29.28571,0 c -2.77,0 -5,-2.23 -5,-5 l 0,-43.57143 c 0,-2.77 9.37286,-8.92857 12.14286,-8.92857 z"
                 style="fill:#808080;fill-opacity:1;stroke:none" />
            </g>
          </g>
        </g>
      </g>
    </g>
  </g>
</svg>
